<mxfile host="Electron" agent="Mozilla/5.0 (Windows NT 10.0; Win64; x64) AppleWebKit/537.36 (KHTML, like Gecko) draw.io/26.0.9 Chrome/128.0.6613.186 Electron/32.2.5 Safari/537.36" version="26.0.9">
  <diagram name="c03_exo_02" id="8ce9d11a-91a2-4d17-14d8-a56ed91bf033">
    <mxGraphModel dx="1434" dy="836" grid="1" gridSize="10" guides="1" tooltips="1" connect="1" arrows="1" fold="1" page="1" pageScale="1" pageWidth="1100" pageHeight="850" background="none" math="0" shadow="0">
      <root>
        <mxCell id="0" />
        <mxCell id="1" parent="0" />
        <mxCell id="kNpxg72YMgbKhvOKtuwA-6" value="clic" style="edgeStyle=orthogonalEdgeStyle;rounded=0;orthogonalLoop=1;jettySize=auto;html=1;" edge="1" parent="1" source="kNpxg72YMgbKhvOKtuwA-1" target="kNpxg72YMgbKhvOKtuwA-2">
          <mxGeometry relative="1" as="geometry" />
        </mxCell>
        <mxCell id="kNpxg72YMgbKhvOKtuwA-1" value="Ã‰teint" style="ellipse;whiteSpace=wrap;html=1;aspect=fixed;" vertex="1" parent="1">
          <mxGeometry x="230" y="190" width="80" height="80" as="geometry" />
        </mxCell>
        <mxCell id="kNpxg72YMgbKhvOKtuwA-7" value="clic" style="edgeStyle=orthogonalEdgeStyle;rounded=0;orthogonalLoop=1;jettySize=auto;html=1;" edge="1" parent="1" source="kNpxg72YMgbKhvOKtuwA-2" target="kNpxg72YMgbKhvOKtuwA-3">
          <mxGeometry relative="1" as="geometry" />
        </mxCell>
        <mxCell id="kNpxg72YMgbKhvOKtuwA-2" value="1 LED" style="ellipse;whiteSpace=wrap;html=1;aspect=fixed;" vertex="1" parent="1">
          <mxGeometry x="410" y="190" width="80" height="80" as="geometry" />
        </mxCell>
        <mxCell id="kNpxg72YMgbKhvOKtuwA-5" value="clic" style="edgeStyle=orthogonalEdgeStyle;rounded=0;orthogonalLoop=1;jettySize=auto;html=1;" edge="1" parent="1" source="kNpxg72YMgbKhvOKtuwA-3" target="kNpxg72YMgbKhvOKtuwA-4">
          <mxGeometry relative="1" as="geometry" />
        </mxCell>
        <mxCell id="kNpxg72YMgbKhvOKtuwA-3" value="2 LED" style="ellipse;whiteSpace=wrap;html=1;aspect=fixed;" vertex="1" parent="1">
          <mxGeometry x="410" y="345" width="80" height="80" as="geometry" />
        </mxCell>
        <mxCell id="kNpxg72YMgbKhvOKtuwA-8" value="clic" style="edgeStyle=orthogonalEdgeStyle;rounded=0;orthogonalLoop=1;jettySize=auto;html=1;" edge="1" parent="1" source="kNpxg72YMgbKhvOKtuwA-4" target="kNpxg72YMgbKhvOKtuwA-1">
          <mxGeometry relative="1" as="geometry" />
        </mxCell>
        <mxCell id="kNpxg72YMgbKhvOKtuwA-4" value="2 LED" style="ellipse;whiteSpace=wrap;html=1;aspect=fixed;" vertex="1" parent="1">
          <mxGeometry x="230" y="345" width="80" height="80" as="geometry" />
        </mxCell>
      </root>
    </mxGraphModel>
  </diagram>
</mxfile>
